ply
format ascii 1.0
element vertex 648
property float x
property float y
property float z
element face 1224
property list uchar int vertex_index
end_header
1 1 0.5
1 1 0.5
1 1 0.5
1 1 0.5
1 1 0.5
1 1 0.5
1 1 0.5
1 1 0.5
1 1 0.5
1 1 0.5
1 1 0.5
1 1 0.5
1 1 0.5
1 1 0.5
1 1 0.5
1 1 0.5
1 1 0.5
1 1 0.5
1 1 0.5
1 1 0.5
1 1 0.5
1 1 0.5
1 1 0.5
1 1 0.5
1 1 0.5
1 1 0.5
1 1 0.5
1 1 0.5
1 1 0.5
1 1 0.5
1 1 0.5
1 1 0.5
1 1 0.5
1 1 0.5
1 1 0.5
1 1 0.5
1.23529 1 0.558824
1.23172 1.04086 0.558824
1.2211 1.08048 0.558824
1.20377 1.11765 0.558824
1.18025 1.15124 0.558824
1.15124 1.18025 0.558824
1.11765 1.20377 0.558824
1.08048 1.2211 0.558824
1.04086 1.23172 0.558824
1 1.23529 0.558824
0.959142 1.23172 0.558824
0.919525 1.2211 0.558824
0.882353 1.20377 0.558824
0.848756 1.18025 0.558824
0.819754 1.15124 0.558824
0.796229 1.11765 0.558824
0.778896 1.08048 0.558824
0.768281 1.04086 0.558824
0.764706 1 0.558824
0.768281 0.959142 0.558824
0.778896 0.919525 0.558824
0.796229 0.882353 0.558824
0.819754 0.848756 0.558824
0.848756 0.819754 0.558824
0.882353 0.796229 0.558824
0.919525 0.778896 0.558824
0.959142 0.768281 0.558824
1 0.764706 0.558824
1.04086 0.768281 0.558824
1.08048 0.778896 0.558824
1.11765 0.796229 0.558824
1.15124 0.819754 0.558824
1.18025 0.848756 0.558824
1.20377 0.882353 0.558824
1.2211 0.919525 0.558824
1.23172 0.959142 0.558824
1.32219 1 0.617647
1.31729 1.05595 0.617647
1.30276 1.1102 0.617647
1.27902 1.16109 0.617647
1.24681 1.2071 0.617647
1.2071 1.24681 0.617647
1.16109 1.27902 0.617647
1.1102 1.30276 0.617647
1.05595 1.31729 0.617647
1 1.32219 0.617647
0.944052 1.31729 0.617647
0.889805 1.30276 0.617647
0.838905 1.27902 0.617647
0.7929 1.24681 0.617647
0.753188 1.2071 0.617647
0.720976 1.16109 0.617647
0.697241 1.1102 0.617647
0.682705 1.05595 0.617647
0.67781 1 0.617647
0.682705 0.944052 0.617647
0.697241 0.889805 0.617647
0.720976 0.838905 0.617647
0.753188 0.7929 0.617647
0.7929 0.753188 0.617647
0.838905 0.720976 0.617647
0.889805 0.697241 0.617647
0.944052 0.682705 0.617647
1 0.67781 0.617647
1.05595 0.682705 0.617647
1.1102 0.697241 0.617647
1.16109 0.720976 0.617647
1.2071 0.753188 0.617647
1.24681 0.7929 0.617647
1.27902 0.838905 0.617647
1.30276 0.889805 0.617647
1.31729 0.944052 0.617647
1.38122 1 0.676471
1.37543 1.0662 0.676471
1.35823 1.13038 0.676471
1.33015 1.19061 0.676471
1.29203 1.24504 0.676471
1.24504 1.29203 0.676471
1.19061 1.33015 0.676471
1.13038 1.35823 0.676471
1.0662 1.37543 0.676471
1 1.38122 0.676471
0.933802 1.37543 0.676471
0.869615 1.35823 0.676471
0.80939 1.33015 0.676471
0.754956 1.29203 0.676471
0.707969 1.24504 0.676471
0.669854 1.19061 0.676471
0.64177 1.13038 0.676471
0.624572 1.0662 0.676471
0.61878 1 0.676471
0.624572 0.933802 0.676471
0.64177 0.869615 0.676471
0.669854 0.80939 0.676471
0.707969 0.754956 0.676471
0.754956 0.707969 0.676471
0.80939 0.669854 0.676471
0.869615 0.64177 0.676471
0.933802 0.624572 0.676471
1 0.61878 0.676471
1.0662 0.624572 0.676471
1.13038 0.64177 0.676471
1.19061 0.669854 0.676471
1.24504 0.707969 0.676471
1.29203 0.754956 0.676471
1.33015 0.80939 0.676471
1.35823 0.869615 0.676471
1.37543 0.933802 0.676471
1.42418 1 0.735294
1.41774 1.07366 0.735294
1.3986 1.14508 0.735294
1.36735 1.21209 0.735294
1.32494 1.27266 0.735294
1.27266 1.32494 0.735294
1.21209 1.36735 0.735294
1.14508 1.3986 0.735294
1.07366 1.41774 0.735294
1 1.42418 0.735294
0.926341 1.41774 0.735294
0.854921 1.3986 0.735294
0.787909 1.36735 0.735294
0.727341 1.32494 0.735294
0.675057 1.27266 0.735294
0.632647 1.21209 0.735294
0.601399 1.14508 0.735294
0.582262 1.07366 0.735294
0.575817 1 0.735294
0.582262 0.926341 0.735294
0.601399 0.854921 0.735294
0.632647 0.787909 0.735294
0.675057 0.727341 0.735294
0.727341 0.675057 0.735294
0.787909 0.632647 0.735294
0.854921 0.601399 0.735294
0.926341 0.582262 0.735294
1 0.575817 0.735294
1.07366 0.582262 0.735294
1.14508 0.601399 0.735294
1.21209 0.632647 0.735294
1.27266 0.675057 0.735294
1.32494 0.727341 0.735294
1.36735 0.787909 0.735294
1.3986 0.854921 0.735294
1.41774 0.926341 0.735294
1.45565 1 0.794118
1.44872 1.07912 0.794118
1.42817 1.15584 0.794118
1.3946 1.22782 0.794118
1.34904 1.29288 0.794118
1.29288 1.34904 0.794118
1.22782 1.3946 0.794118
1.15584 1.42817 0.794118
1.07912 1.44872 0.794118
1 1.45565 0.794118
0.920878 1.44872 0.794118
0.84416 1.42817 0.794118
0.772177 1.3946 0.794118
0.707117 1.34904 0.794118
0.650956 1.29288 0.794118
0.6054 1.22782 0.794118
0.571834 1.15584 0.794118
0.551277 1.07912 0.794118
0.544355 1 0.794118
0.551277 0.920878 0.794118
0.571834 0.84416 0.794118
0.6054 0.772177 0.794118
0.650956 0.707117 0.794118
0.707117 0.650956 0.794118
0.772177 0.6054 0.794118
0.84416 0.571834 0.794118
0.920878 0.551277 0.794118
1 0.544355 0.794118
1.07912 0.551277 0.794118
1.15584 0.571834 0.794118
1.22782 0.6054 0.794118
1.29288 0.650956 0.794118
1.34904 0.707117 0.794118
1.3946 0.772177 0.794118
1.42817 0.84416 0.794118
1.44872 0.920878 0.794118
1.47788 1 0.852941
1.47062 1.08298 0.852941
1.44906 1.16345 0.852941
1.41386 1.23894 0.852941
1.36608 1.30718 0.852941
1.30718 1.36608 0.852941
1.23894 1.41386 0.852941
1.16345 1.44906 0.852941
1.08298 1.47062 0.852941
1 1.47788 0.852941
0.917016 1.47062 0.852941
0.836554 1.44906 0.852941
0.761058 1.41386 0.852941
0.692822 1.36608 0.852941
0.633919 1.30718 0.852941
0.58614 1.23894 0.852941
0.550935 1.16345 0.852941
0.529376 1.08298 0.852941
0.522115 1 0.852941
0.529376 0.917016 0.852941
0.550935 0.836554 0.852941
0.58614 0.761058 0.852941
0.633919 0.692822 0.852941
0.692822 0.633919 0.852941
0.761058 0.58614 0.852941
0.836554 0.550935 0.852941
0.917016 0.529376 0.852941
1 0.522115 0.852941
1.08298 0.529376 0.852941
1.16345 0.550935 0.852941
1.23894 0.58614 0.852941
1.30718 0.633919 0.852941
1.36608 0.692822 0.852941
1.41386 0.761058 0.852941
1.44906 0.836554 0.852941
1.47062 0.917016 0.852941
1.49215 1 0.911765
1.48468 1.08546 0.911765
1.46247 1.16833 0.911765
1.42622 1.24608 0.911765
1.37701 1.31635 0.911765
1.31635 1.37701 0.911765
1.24608 1.42622 0.911765
1.16833 1.46247 0.911765
1.08546 1.48468 0.911765
1 1.49215 0.911765
0.914539 1.48468 0.911765
0.831674 1.46247 0.911765
0.753924 1.42622 0.911765
0.68365 1.37701 0.911765
0.622989 1.31635 0.911765
0.573783 1.24608 0.911765
0.537527 1.16833 0.911765
0.515324 1.08546 0.911765
0.507847 1 0.911765
0.515324 0.914539 0.911765
0.537527 0.831674 0.911765
0.573783 0.753924 0.911765
0.622989 0.68365 0.911765
0.68365 0.622989 0.911765
0.753924 0.573783 0.911765
0.831674 0.537527 0.911765
0.914539 0.515324 0.911765
1 0.507847 0.911765
1.08546 0.515324 0.911765
1.16833 0.537527 0.911765
1.24608 0.573783 0.911765
1.31635 0.622989 0.911765
1.37701 0.68365 0.911765
1.42622 0.753924 0.911765
1.46247 0.831674 0.911765
1.48468 0.914539 0.911765
1.49913 1 0.970588
1.49155 1.08667 0.970588
1.46903 1.17071 0.970588
1.43226 1.24957 0.970588
1.38236 1.32084 0.970588
1.32084 1.38236 0.970588
1.24957 1.43226 0.970588
1.17071 1.46903 0.970588
1.08667 1.49155 0.970588
1 1.49913 0.970588
0.913326 1.49155 0.970588
0.829286 1.46903 0.970588
0.750433 1.43226 0.970588
0.679163 1.38236 0.970588
0.617641 1.32084 0.970588
0.567737 1.24957 0.970588
0.530967 1.17071 0.970588
0.508449 1.08667 0.970588
0.500866 1 0.970588
0.508449 0.913326 0.970588
0.530967 0.829286 0.970588
0.567737 0.750433 0.970588
0.617641 0.679163 0.970588
0.679163 0.617641 0.970588
0.750433 0.567737 0.970588
0.829286 0.530967 0.970588
0.913326 0.508449 0.970588
1 0.500866 0.970588
1.08667 0.508449 0.970588
1.17071 0.530967 0.970588
1.24957 0.567737 0.970588
1.32084 0.617641 0.970588
1.38236 0.679163 0.970588
1.43226 0.750433 0.970588
1.46903 0.829286 0.970588
1.49155 0.913326 0.970588
1.49913 1 1.02941
1.49155 1.08667 1.02941
1.46903 1.17071 1.02941
1.43226 1.24957 1.02941
1.38236 1.32084 1.02941
1.32084 1.38236 1.02941
1.24957 1.43226 1.02941
1.17071 1.46903 1.02941
1.08667 1.49155 1.02941
1 1.49913 1.02941
0.913326 1.49155 1.02941
0.829286 1.46903 1.02941
0.750433 1.43226 1.02941
0.679163 1.38236 1.02941
0.617641 1.32084 1.02941
0.567737 1.24957 1.02941
0.530967 1.17071 1.02941
0.508449 1.08667 1.02941
0.500866 1 1.02941
0.508449 0.913326 1.02941
0.530967 0.829286 1.02941
0.567737 0.750433 1.02941
0.617641 0.679163 1.02941
0.679163 0.617641 1.02941
0.750433 0.567737 1.02941
0.829286 0.530967 1.02941
0.913326 0.508449 1.02941
1 0.500866 1.02941
1.08667 0.508449 1.02941
1.17071 0.530967 1.02941
1.24957 0.567737 1.02941
1.32084 0.617641 1.02941
1.38236 0.679163 1.02941
1.43226 0.750433 1.02941
1.46903 0.829286 1.02941
1.49155 0.913326 1.02941
1.49215 1 1.08824
1.48468 1.08546 1.08824
1.46247 1.16833 1.08824
1.42622 1.24608 1.08824
1.37701 1.31635 1.08824
1.31635 1.37701 1.08824
1.24608 1.42622 1.08824
1.16833 1.46247 1.08824
1.08546 1.48468 1.08824
1 1.49215 1.08824
0.914539 1.48468 1.08824
0.831674 1.46247 1.08824
0.753924 1.42622 1.08824
0.68365 1.37701 1.08824
0.622989 1.31635 1.08824
0.573783 1.24608 1.08824
0.537527 1.16833 1.08824
0.515324 1.08546 1.08824
0.507847 1 1.08824
0.515324 0.914539 1.08824
0.537527 0.831674 1.08824
0.573783 0.753924 1.08824
0.622989 0.68365 1.08824
0.68365 0.622989 1.08824
0.753924 0.573783 1.08824
0.831674 0.537527 1.08824
0.914539 0.515324 1.08824
1 0.507847 1.08824
1.08546 0.515324 1.08824
1.16833 0.537527 1.08824
1.24608 0.573783 1.08824
1.31635 0.622989 1.08824
1.37701 0.68365 1.08824
1.42622 0.753924 1.08824
1.46247 0.831674 1.08824
1.48468 0.914539 1.08824
1.47788 1 1.14706
1.47062 1.08298 1.14706
1.44906 1.16345 1.14706
1.41386 1.23894 1.14706
1.36608 1.30718 1.14706
1.30718 1.36608 1.14706
1.23894 1.41386 1.14706
1.16345 1.44906 1.14706
1.08298 1.47062 1.14706
1 1.47788 1.14706
0.917016 1.47062 1.14706
0.836554 1.44906 1.14706
0.761058 1.41386 1.14706
0.692822 1.36608 1.14706
0.633919 1.30718 1.14706
0.58614 1.23894 1.14706
0.550935 1.16345 1.14706
0.529376 1.08298 1.14706
0.522115 1 1.14706
0.529376 0.917016 1.14706
0.550935 0.836554 1.14706
0.58614 0.761058 1.14706
0.633919 0.692822 1.14706
0.692822 0.633919 1.14706
0.761058 0.58614 1.14706
0.836554 0.550935 1.14706
0.917016 0.529376 1.14706
1 0.522115 1.14706
1.08298 0.529376 1.14706
1.16345 0.550935 1.14706
1.23894 0.58614 1.14706
1.30718 0.633919 1.14706
1.36608 0.692822 1.14706
1.41386 0.761058 1.14706
1.44906 0.836554 1.14706
1.47062 0.917016 1.14706
1.45565 1 1.20588
1.44872 1.07912 1.20588
1.42817 1.15584 1.20588
1.3946 1.22782 1.20588
1.34904 1.29288 1.20588
1.29288 1.34904 1.20588
1.22782 1.3946 1.20588
1.15584 1.42817 1.20588
1.07912 1.44872 1.20588
1 1.45565 1.20588
0.920878 1.44872 1.20588
0.84416 1.42817 1.20588
0.772177 1.3946 1.20588
0.707117 1.34904 1.20588
0.650956 1.29288 1.20588
0.6054 1.22782 1.20588
0.571834 1.15584 1.20588
0.551277 1.07912 1.20588
0.544355 1 1.20588
0.551277 0.920878 1.20588
0.571834 0.84416 1.20588
0.6054 0.772177 1.20588
0.650956 0.707117 1.20588
0.707117 0.650956 1.20588
0.772177 0.6054 1.20588
0.84416 0.571834 1.20588
0.920878 0.551277 1.20588
1 0.544355 1.20588
1.07912 0.551277 1.20588
1.15584 0.571834 1.20588
1.22782 0.6054 1.20588
1.29288 0.650956 1.20588
1.34904 0.707117 1.20588
1.3946 0.772177 1.20588
1.42817 0.84416 1.20588
1.44872 0.920878 1.20588
1.42418 1 1.26471
1.41774 1.07366 1.26471
1.3986 1.14508 1.26471
1.36735 1.21209 1.26471
1.32494 1.27266 1.26471
1.27266 1.32494 1.26471
1.21209 1.36735 1.26471
1.14508 1.3986 1.26471
1.07366 1.41774 1.26471
1 1.42418 1.26471
0.926341 1.41774 1.26471
0.854921 1.3986 1.26471
0.787909 1.36735 1.26471
0.727341 1.32494 1.26471
0.675057 1.27266 1.26471
0.632647 1.21209 1.26471
0.601399 1.14508 1.26471
0.582262 1.07366 1.26471
0.575817 1 1.26471
0.582262 0.926341 1.26471
0.601399 0.854921 1.26471
0.632647 0.787909 1.26471
0.675057 0.727341 1.26471
0.727341 0.675057 1.26471
0.787909 0.632647 1.26471
0.854921 0.601399 1.26471
0.926341 0.582262 1.26471
1 0.575817 1.26471
1.07366 0.582262 1.26471
1.14508 0.601399 1.26471
1.21209 0.632647 1.26471
1.27266 0.675057 1.26471
1.32494 0.727341 1.26471
1.36735 0.787909 1.26471
1.3986 0.854921 1.26471
1.41774 0.926341 1.26471
1.38122 1 1.32353
1.37543 1.0662 1.32353
1.35823 1.13038 1.32353
1.33015 1.19061 1.32353
1.29203 1.24504 1.32353
1.24504 1.29203 1.32353
1.19061 1.33015 1.32353
1.13038 1.35823 1.32353
1.0662 1.37543 1.32353
1 1.38122 1.32353
0.933802 1.37543 1.32353
0.869615 1.35823 1.32353
0.80939 1.33015 1.32353
0.754956 1.29203 1.32353
0.707969 1.24504 1.32353
0.669854 1.19061 1.32353
0.64177 1.13038 1.32353
0.624572 1.0662 1.32353
0.61878 1 1.32353
0.624572 0.933802 1.32353
0.64177 0.869615 1.32353
0.669854 0.80939 1.32353
0.707969 0.754956 1.32353
0.754956 0.707969 1.32353
0.80939 0.669854 1.32353
0.869615 0.64177 1.32353
0.933802 0.624572 1.32353
1 0.61878 1.32353
1.0662 0.624572 1.32353
1.13038 0.64177 1.32353
1.19061 0.669854 1.32353
1.24504 0.707969 1.32353
1.29203 0.754956 1.32353
1.33015 0.80939 1.32353
1.35823 0.869615 1.32353
1.37543 0.933802 1.32353
1.32219 1 1.38235
1.31729 1.05595 1.38235
1.30276 1.1102 1.38235
1.27902 1.16109 1.38235
1.24681 1.2071 1.38235
1.2071 1.24681 1.38235
1.16109 1.27902 1.38235
1.1102 1.30276 1.38235
1.05595 1.31729 1.38235
1 1.32219 1.38235
0.944052 1.31729 1.38235
0.889805 1.30276 1.38235
0.838905 1.27902 1.38235
0.7929 1.24681 1.38235
0.753188 1.2071 1.38235
0.720976 1.16109 1.38235
0.697241 1.1102 1.38235
0.682705 1.05595 1.38235
0.67781 1 1.38235
0.682705 0.944052 1.38235
0.697241 0.889805 1.38235
0.720976 0.838905 1.38235
0.753188 0.7929 1.38235
0.7929 0.753188 1.38235
0.838905 0.720976 1.38235
0.889805 0.697241 1.38235
0.944052 0.682705 1.38235
1 0.67781 1.38235
1.05595 0.682705 1.38235
1.1102 0.697241 1.38235
1.16109 0.720976 1.38235
1.2071 0.753188 1.38235
1.24681 0.7929 1.38235
1.27902 0.838905 1.38235
1.30276 0.889805 1.38235
1.31729 0.944052 1.38235
1.23529 1 1.44118
1.23172 1.04086 1.44118
1.2211 1.08048 1.44118
1.20377 1.11765 1.44118
1.18025 1.15124 1.44118
1.15124 1.18025 1.44118
1.11765 1.20377 1.44118
1.08048 1.2211 1.44118
1.04086 1.23172 1.44118
1 1.23529 1.44118
0.959142 1.23172 1.44118
0.919525 1.2211 1.44118
0.882353 1.20377 1.44118
0.848756 1.18025 1.44118
0.819754 1.15124 1.44118
0.796229 1.11765 1.44118
0.778896 1.08048 1.44118
0.768281 1.04086 1.44118
0.764706 1 1.44118
0.768281 0.959142 1.44118
0.778896 0.919525 1.44118
0.796229 0.882353 1.44118
0.819754 0.848756 1.44118
0.848756 0.819754 1.44118
0.882353 0.796229 1.44118
0.919525 0.778896 1.44118
0.959142 0.768281 1.44118
1 0.764706 1.44118
1.04086 0.768281 1.44118
1.08048 0.778896 1.44118
1.11765 0.796229 1.44118
1.15124 0.819754 1.44118
1.18025 0.848756 1.44118
1.20377 0.882353 1.44118
1.2211 0.919525 1.44118
1.23172 0.959142 1.44118
1 1 1.5
1 1 1.5
1 1 1.5
1 1 1.5
1 1 1.5
1 1 1.5
1 1 1.5
1 1 1.5
1 1 1.5
1 1 1.5
1 1 1.5
1 1 1.5
1 1 1.5
1 1 1.5
1 1 1.5
1 1 1.5
1 1 1.5
1 1 1.5
1 1 1.5
1 1 1.5
1 1 1.5
1 1 1.5
1 1 1.5
1 1 1.5
1 1 1.5
1 1 1.5
1 1 1.5
1 1 1.5
1 1 1.5
1 1 1.5
1 1 1.5
1 1 1.5
1 1 1.5
1 1 1.5
1 1 1.5
1 1 1.5
3 0 1 36
3 1 37 36
3 1 2 37
3 2 38 37
3 2 3 38
3 3 39 38
3 3 4 39
3 4 40 39
3 4 5 40
3 5 41 40
3 5 6 41
3 6 42 41
3 6 7 42
3 7 43 42
3 7 8 43
3 8 44 43
3 8 9 44
3 9 45 44
3 9 10 45
3 10 46 45
3 10 11 46
3 11 47 46
3 11 12 47
3 12 48 47
3 12 13 48
3 13 49 48
3 13 14 49
3 14 50 49
3 14 15 50
3 15 51 50
3 15 16 51
3 16 52 51
3 16 17 52
3 17 53 52
3 17 18 53
3 18 54 53
3 18 19 54
3 19 55 54
3 19 20 55
3 20 56 55
3 20 21 56
3 21 57 56
3 21 22 57
3 22 58 57
3 22 23 58
3 23 59 58
3 23 24 59
3 24 60 59
3 24 25 60
3 25 61 60
3 25 26 61
3 26 62 61
3 26 27 62
3 27 63 62
3 27 28 63
3 28 64 63
3 28 29 64
3 29 65 64
3 29 30 65
3 30 66 65
3 30 31 66
3 31 67 66
3 31 32 67
3 32 68 67
3 32 33 68
3 33 69 68
3 33 34 69
3 34 70 69
3 34 35 70
3 35 71 70
3 35 0 71
3 0 36 71
3 36 37 72
3 37 73 72
3 37 38 73
3 38 74 73
3 38 39 74
3 39 75 74
3 39 40 75
3 40 76 75
3 40 41 76
3 41 77 76
3 41 42 77
3 42 78 77
3 42 43 78
3 43 79 78
3 43 44 79
3 44 80 79
3 44 45 80
3 45 81 80
3 45 46 81
3 46 82 81
3 46 47 82
3 47 83 82
3 47 48 83
3 48 84 83
3 48 49 84
3 49 85 84
3 49 50 85
3 50 86 85
3 50 51 86
3 51 87 86
3 51 52 87
3 52 88 87
3 52 53 88
3 53 89 88
3 53 54 89
3 54 90 89
3 54 55 90
3 55 91 90
3 55 56 91
3 56 92 91
3 56 57 92
3 57 93 92
3 57 58 93
3 58 94 93
3 58 59 94
3 59 95 94
3 59 60 95
3 60 96 95
3 60 61 96
3 61 97 96
3 61 62 97
3 62 98 97
3 62 63 98
3 63 99 98
3 63 64 99
3 64 100 99
3 64 65 100
3 65 101 100
3 65 66 101
3 66 102 101
3 66 67 102
3 67 103 102
3 67 68 103
3 68 104 103
3 68 69 104
3 69 105 104
3 69 70 105
3 70 106 105
3 70 71 106
3 71 107 106
3 71 36 107
3 36 72 107
3 72 73 108
3 73 109 108
3 73 74 109
3 74 110 109
3 74 75 110
3 75 111 110
3 75 76 111
3 76 112 111
3 76 77 112
3 77 113 112
3 77 78 113
3 78 114 113
3 78 79 114
3 79 115 114
3 79 80 115
3 80 116 115
3 80 81 116
3 81 117 116
3 81 82 117
3 82 118 117
3 82 83 118
3 83 119 118
3 83 84 119
3 84 120 119
3 84 85 120
3 85 121 120
3 85 86 121
3 86 122 121
3 86 87 122
3 87 123 122
3 87 88 123
3 88 124 123
3 88 89 124
3 89 125 124
3 89 90 125
3 90 126 125
3 90 91 126
3 91 127 126
3 91 92 127
3 92 128 127
3 92 93 128
3 93 129 128
3 93 94 129
3 94 130 129
3 94 95 130
3 95 131 130
3 95 96 131
3 96 132 131
3 96 97 132
3 97 133 132
3 97 98 133
3 98 134 133
3 98 99 134
3 99 135 134
3 99 100 135
3 100 136 135
3 100 101 136
3 101 137 136
3 101 102 137
3 102 138 137
3 102 103 138
3 103 139 138
3 103 104 139
3 104 140 139
3 104 105 140
3 105 141 140
3 105 106 141
3 106 142 141
3 106 107 142
3 107 143 142
3 107 72 143
3 72 108 143
3 108 109 144
3 109 145 144
3 109 110 145
3 110 146 145
3 110 111 146
3 111 147 146
3 111 112 147
3 112 148 147
3 112 113 148
3 113 149 148
3 113 114 149
3 114 150 149
3 114 115 150
3 115 151 150
3 115 116 151
3 116 152 151
3 116 117 152
3 117 153 152
3 117 118 153
3 118 154 153
3 118 119 154
3 119 155 154
3 119 120 155
3 120 156 155
3 120 121 156
3 121 157 156
3 121 122 157
3 122 158 157
3 122 123 158
3 123 159 158
3 123 124 159
3 124 160 159
3 124 125 160
3 125 161 160
3 125 126 161
3 126 162 161
3 126 127 162
3 127 163 162
3 127 128 163
3 128 164 163
3 128 129 164
3 129 165 164
3 129 130 165
3 130 166 165
3 130 131 166
3 131 167 166
3 131 132 167
3 132 168 167
3 132 133 168
3 133 169 168
3 133 134 169
3 134 170 169
3 134 135 170
3 135 171 170
3 135 136 171
3 136 172 171
3 136 137 172
3 137 173 172
3 137 138 173
3 138 174 173
3 138 139 174
3 139 175 174
3 139 140 175
3 140 176 175
3 140 141 176
3 141 177 176
3 141 142 177
3 142 178 177
3 142 143 178
3 143 179 178
3 143 108 179
3 108 144 179
3 144 145 180
3 145 181 180
3 145 146 181
3 146 182 181
3 146 147 182
3 147 183 182
3 147 148 183
3 148 184 183
3 148 149 184
3 149 185 184
3 149 150 185
3 150 186 185
3 150 151 186
3 151 187 186
3 151 152 187
3 152 188 187
3 152 153 188
3 153 189 188
3 153 154 189
3 154 190 189
3 154 155 190
3 155 191 190
3 155 156 191
3 156 192 191
3 156 157 192
3 157 193 192
3 157 158 193
3 158 194 193
3 158 159 194
3 159 195 194
3 159 160 195
3 160 196 195
3 160 161 196
3 161 197 196
3 161 162 197
3 162 198 197
3 162 163 198
3 163 199 198
3 163 164 199
3 164 200 199
3 164 165 200
3 165 201 200
3 165 166 201
3 166 202 201
3 166 167 202
3 167 203 202
3 167 168 203
3 168 204 203
3 168 169 204
3 169 205 204
3 169 170 205
3 170 206 205
3 170 171 206
3 171 207 206
3 171 172 207
3 172 208 207
3 172 173 208
3 173 209 208
3 173 174 209
3 174 210 209
3 174 175 210
3 175 211 210
3 175 176 211
3 176 212 211
3 176 177 212
3 177 213 212
3 177 178 213
3 178 214 213
3 178 179 214
3 179 215 214
3 179 144 215
3 144 180 215
3 180 181 216
3 181 217 216
3 181 182 217
3 182 218 217
3 182 183 218
3 183 219 218
3 183 184 219
3 184 220 219
3 184 185 220
3 185 221 220
3 185 186 221
3 186 222 221
3 186 187 222
3 187 223 222
3 187 188 223
3 188 224 223
3 188 189 224
3 189 225 224
3 189 190 225
3 190 226 225
3 190 191 226
3 191 227 226
3 191 192 227
3 192 228 227
3 192 193 228
3 193 229 228
3 193 194 229
3 194 230 229
3 194 195 230
3 195 231 230
3 195 196 231
3 196 232 231
3 196 197 232
3 197 233 232
3 197 198 233
3 198 234 233
3 198 199 234
3 199 235 234
3 199 200 235
3 200 236 235
3 200 201 236
3 201 237 236
3 201 202 237
3 202 238 237
3 202 203 238
3 203 239 238
3 203 204 239
3 204 240 239
3 204 205 240
3 205 241 240
3 205 206 241
3 206 242 241
3 206 207 242
3 207 243 242
3 207 208 243
3 208 244 243
3 208 209 244
3 209 245 244
3 209 210 245
3 210 246 245
3 210 211 246
3 211 247 246
3 211 212 247
3 212 248 247
3 212 213 248
3 213 249 248
3 213 214 249
3 214 250 249
3 214 215 250
3 215 251 250
3 215 180 251
3 180 216 251
3 216 217 252
3 217 253 252
3 217 218 253
3 218 254 253
3 218 219 254
3 219 255 254
3 219 220 255
3 220 256 255
3 220 221 256
3 221 257 256
3 221 222 257
3 222 258 257
3 222 223 258
3 223 259 258
3 223 224 259
3 224 260 259
3 224 225 260
3 225 261 260
3 225 226 261
3 226 262 261
3 226 227 262
3 227 263 262
3 227 228 263
3 228 264 263
3 228 229 264
3 229 265 264
3 229 230 265
3 230 266 265
3 230 231 266
3 231 267 266
3 231 232 267
3 232 268 267
3 232 233 268
3 233 269 268
3 233 234 269
3 234 270 269
3 234 235 270
3 235 271 270
3 235 236 271
3 236 272 271
3 236 237 272
3 237 273 272
3 237 238 273
3 238 274 273
3 238 239 274
3 239 275 274
3 239 240 275
3 240 276 275
3 240 241 276
3 241 277 276
3 241 242 277
3 242 278 277
3 242 243 278
3 243 279 278
3 243 244 279
3 244 280 279
3 244 245 280
3 245 281 280
3 245 246 281
3 246 282 281
3 246 247 282
3 247 283 282
3 247 248 283
3 248 284 283
3 248 249 284
3 249 285 284
3 249 250 285
3 250 286 285
3 250 251 286
3 251 287 286
3 251 216 287
3 216 252 287
3 252 253 288
3 253 289 288
3 253 254 289
3 254 290 289
3 254 255 290
3 255 291 290
3 255 256 291
3 256 292 291
3 256 257 292
3 257 293 292
3 257 258 293
3 258 294 293
3 258 259 294
3 259 295 294
3 259 260 295
3 260 296 295
3 260 261 296
3 261 297 296
3 261 262 297
3 262 298 297
3 262 263 298
3 263 299 298
3 263 264 299
3 264 300 299
3 264 265 300
3 265 301 300
3 265 266 301
3 266 302 301
3 266 267 302
3 267 303 302
3 267 268 303
3 268 304 303
3 268 269 304
3 269 305 304
3 269 270 305
3 270 306 305
3 270 271 306
3 271 307 306
3 271 272 307
3 272 308 307
3 272 273 308
3 273 309 308
3 273 274 309
3 274 310 309
3 274 275 310
3 275 311 310
3 275 276 311
3 276 312 311
3 276 277 312
3 277 313 312
3 277 278 313
3 278 314 313
3 278 279 314
3 279 315 314
3 279 280 315
3 280 316 315
3 280 281 316
3 281 317 316
3 281 282 317
3 282 318 317
3 282 283 318
3 283 319 318
3 283 284 319
3 284 320 319
3 284 285 320
3 285 321 320
3 285 286 321
3 286 322 321
3 286 287 322
3 287 323 322
3 287 252 323
3 252 288 323
3 288 289 324
3 289 325 324
3 289 290 325
3 290 326 325
3 290 291 326
3 291 327 326
3 291 292 327
3 292 328 327
3 292 293 328
3 293 329 328
3 293 294 329
3 294 330 329
3 294 295 330
3 295 331 330
3 295 296 331
3 296 332 331
3 296 297 332
3 297 333 332
3 297 298 333
3 298 334 333
3 298 299 334
3 299 335 334
3 299 300 335
3 300 336 335
3 300 301 336
3 301 337 336
3 301 302 337
3 302 338 337
3 302 303 338
3 303 339 338
3 303 304 339
3 304 340 339
3 304 305 340
3 305 341 340
3 305 306 341
3 306 342 341
3 306 307 342
3 307 343 342
3 307 308 343
3 308 344 343
3 308 309 344
3 309 345 344
3 309 310 345
3 310 346 345
3 310 311 346
3 311 347 346
3 311 312 347
3 312 348 347
3 312 313 348
3 313 349 348
3 313 314 349
3 314 350 349
3 314 315 350
3 315 351 350
3 315 316 351
3 316 352 351
3 316 317 352
3 317 353 352
3 317 318 353
3 318 354 353
3 318 319 354
3 319 355 354
3 319 320 355
3 320 356 355
3 320 321 356
3 321 357 356
3 321 322 357
3 322 358 357
3 322 323 358
3 323 359 358
3 323 288 359
3 288 324 359
3 324 325 360
3 325 361 360
3 325 326 361
3 326 362 361
3 326 327 362
3 327 363 362
3 327 328 363
3 328 364 363
3 328 329 364
3 329 365 364
3 329 330 365
3 330 366 365
3 330 331 366
3 331 367 366
3 331 332 367
3 332 368 367
3 332 333 368
3 333 369 368
3 333 334 369
3 334 370 369
3 334 335 370
3 335 371 370
3 335 336 371
3 336 372 371
3 336 337 372
3 337 373 372
3 337 338 373
3 338 374 373
3 338 339 374
3 339 375 374
3 339 340 375
3 340 376 375
3 340 341 376
3 341 377 376
3 341 342 377
3 342 378 377
3 342 343 378
3 343 379 378
3 343 344 379
3 344 380 379
3 344 345 380
3 345 381 380
3 345 346 381
3 346 382 381
3 346 347 382
3 347 383 382
3 347 348 383
3 348 384 383
3 348 349 384
3 349 385 384
3 349 350 385
3 350 386 385
3 350 351 386
3 351 387 386
3 351 352 387
3 352 388 387
3 352 353 388
3 353 389 388
3 353 354 389
3 354 390 389
3 354 355 390
3 355 391 390
3 355 356 391
3 356 392 391
3 356 357 392
3 357 393 392
3 357 358 393
3 358 394 393
3 358 359 394
3 359 395 394
3 359 324 395
3 324 360 395
3 360 361 396
3 361 397 396
3 361 362 397
3 362 398 397
3 362 363 398
3 363 399 398
3 363 364 399
3 364 400 399
3 364 365 400
3 365 401 400
3 365 366 401
3 366 402 401
3 366 367 402
3 367 403 402
3 367 368 403
3 368 404 403
3 368 369 404
3 369 405 404
3 369 370 405
3 370 406 405
3 370 371 406
3 371 407 406
3 371 372 407
3 372 408 407
3 372 373 408
3 373 409 408
3 373 374 409
3 374 410 409
3 374 375 410
3 375 411 410
3 375 376 411
3 376 412 411
3 376 377 412
3 377 413 412
3 377 378 413
3 378 414 413
3 378 379 414
3 379 415 414
3 379 380 415
3 380 416 415
3 380 381 416
3 381 417 416
3 381 382 417
3 382 418 417
3 382 383 418
3 383 419 418
3 383 384 419
3 384 420 419
3 384 385 420
3 385 421 420
3 385 386 421
3 386 422 421
3 386 387 422
3 387 423 422
3 387 388 423
3 388 424 423
3 388 389 424
3 389 425 424
3 389 390 425
3 390 426 425
3 390 391 426
3 391 427 426
3 391 392 427
3 392 428 427
3 392 393 428
3 393 429 428
3 393 394 429
3 394 430 429
3 394 395 430
3 395 431 430
3 395 360 431
3 360 396 431
3 396 397 432
3 397 433 432
3 397 398 433
3 398 434 433
3 398 399 434
3 399 435 434
3 399 400 435
3 400 436 435
3 400 401 436
3 401 437 436
3 401 402 437
3 402 438 437
3 402 403 438
3 403 439 438
3 403 404 439
3 404 440 439
3 404 405 440
3 405 441 440
3 405 406 441
3 406 442 441
3 406 407 442
3 407 443 442
3 407 408 443
3 408 444 443
3 408 409 444
3 409 445 444
3 409 410 445
3 410 446 445
3 410 411 446
3 411 447 446
3 411 412 447
3 412 448 447
3 412 413 448
3 413 449 448
3 413 414 449
3 414 450 449
3 414 415 450
3 415 451 450
3 415 416 451
3 416 452 451
3 416 417 452
3 417 453 452
3 417 418 453
3 418 454 453
3 418 419 454
3 419 455 454
3 419 420 455
3 420 456 455
3 420 421 456
3 421 457 456
3 421 422 457
3 422 458 457
3 422 423 458
3 423 459 458
3 423 424 459
3 424 460 459
3 424 425 460
3 425 461 460
3 425 426 461
3 426 462 461
3 426 427 462
3 427 463 462
3 427 428 463
3 428 464 463
3 428 429 464
3 429 465 464
3 429 430 465
3 430 466 465
3 430 431 466
3 431 467 466
3 431 396 467
3 396 432 467
3 432 433 468
3 433 469 468
3 433 434 469
3 434 470 469
3 434 435 470
3 435 471 470
3 435 436 471
3 436 472 471
3 436 437 472
3 437 473 472
3 437 438 473
3 438 474 473
3 438 439 474
3 439 475 474
3 439 440 475
3 440 476 475
3 440 441 476
3 441 477 476
3 441 442 477
3 442 478 477
3 442 443 478
3 443 479 478
3 443 444 479
3 444 480 479
3 444 445 480
3 445 481 480
3 445 446 481
3 446 482 481
3 446 447 482
3 447 483 482
3 447 448 483
3 448 484 483
3 448 449 484
3 449 485 484
3 449 450 485
3 450 486 485
3 450 451 486
3 451 487 486
3 451 452 487
3 452 488 487
3 452 453 488
3 453 489 488
3 453 454 489
3 454 490 489
3 454 455 490
3 455 491 490
3 455 456 491
3 456 492 491
3 456 457 492
3 457 493 492
3 457 458 493
3 458 494 493
3 458 459 494
3 459 495 494
3 459 460 495
3 460 496 495
3 460 461 496
3 461 497 496
3 461 462 497
3 462 498 497
3 462 463 498
3 463 499 498
3 463 464 499
3 464 500 499
3 464 465 500
3 465 501 500
3 465 466 501
3 466 502 501
3 466 467 502
3 467 503 502
3 467 432 503
3 432 468 503
3 468 469 504
3 469 505 504
3 469 470 505
3 470 506 505
3 470 471 506
3 471 507 506
3 471 472 507
3 472 508 507
3 472 473 508
3 473 509 508
3 473 474 509
3 474 510 509
3 474 475 510
3 475 511 510
3 475 476 511
3 476 512 511
3 476 477 512
3 477 513 512
3 477 478 513
3 478 514 513
3 478 479 514
3 479 515 514
3 479 480 515
3 480 516 515
3 480 481 516
3 481 517 516
3 481 482 517
3 482 518 517
3 482 483 518
3 483 519 518
3 483 484 519
3 484 520 519
3 484 485 520
3 485 521 520
3 485 486 521
3 486 522 521
3 486 487 522
3 487 523 522
3 487 488 523
3 488 524 523
3 488 489 524
3 489 525 524
3 489 490 525
3 490 526 525
3 490 491 526
3 491 527 526
3 491 492 527
3 492 528 527
3 492 493 528
3 493 529 528
3 493 494 529
3 494 530 529
3 494 495 530
3 495 531 530
3 495 496 531
3 496 532 531
3 496 497 532
3 497 533 532
3 497 498 533
3 498 534 533
3 498 499 534
3 499 535 534
3 499 500 535
3 500 536 535
3 500 501 536
3 501 537 536
3 501 502 537
3 502 538 537
3 502 503 538
3 503 539 538
3 503 468 539
3 468 504 539
3 504 505 540
3 505 541 540
3 505 506 541
3 506 542 541
3 506 507 542
3 507 543 542
3 507 508 543
3 508 544 543
3 508 509 544
3 509 545 544
3 509 510 545
3 510 546 545
3 510 511 546
3 511 547 546
3 511 512 547
3 512 548 547
3 512 513 548
3 513 549 548
3 513 514 549
3 514 550 549
3 514 515 550
3 515 551 550
3 515 516 551
3 516 552 551
3 516 517 552
3 517 553 552
3 517 518 553
3 518 554 553
3 518 519 554
3 519 555 554
3 519 520 555
3 520 556 555
3 520 521 556
3 521 557 556
3 521 522 557
3 522 558 557
3 522 523 558
3 523 559 558
3 523 524 559
3 524 560 559
3 524 525 560
3 525 561 560
3 525 526 561
3 526 562 561
3 526 527 562
3 527 563 562
3 527 528 563
3 528 564 563
3 528 529 564
3 529 565 564
3 529 530 565
3 530 566 565
3 530 531 566
3 531 567 566
3 531 532 567
3 532 568 567
3 532 533 568
3 533 569 568
3 533 534 569
3 534 570 569
3 534 535 570
3 535 571 570
3 535 536 571
3 536 572 571
3 536 537 572
3 537 573 572
3 537 538 573
3 538 574 573
3 538 539 574
3 539 575 574
3 539 504 575
3 504 540 575
3 540 541 576
3 541 577 576
3 541 542 577
3 542 578 577
3 542 543 578
3 543 579 578
3 543 544 579
3 544 580 579
3 544 545 580
3 545 581 580
3 545 546 581
3 546 582 581
3 546 547 582
3 547 583 582
3 547 548 583
3 548 584 583
3 548 549 584
3 549 585 584
3 549 550 585
3 550 586 585
3 550 551 586
3 551 587 586
3 551 552 587
3 552 588 587
3 552 553 588
3 553 589 588
3 553 554 589
3 554 590 589
3 554 555 590
3 555 591 590
3 555 556 591
3 556 592 591
3 556 557 592
3 557 593 592
3 557 558 593
3 558 594 593
3 558 559 594
3 559 595 594
3 559 560 595
3 560 596 595
3 560 561 596
3 561 597 596
3 561 562 597
3 562 598 597
3 562 563 598
3 563 599 598
3 563 564 599
3 564 600 599
3 564 565 600
3 565 601 600
3 565 566 601
3 566 602 601
3 566 567 602
3 567 603 602
3 567 568 603
3 568 604 603
3 568 569 604
3 569 605 604
3 569 570 605
3 570 606 605
3 570 571 606
3 571 607 606
3 571 572 607
3 572 608 607
3 572 573 608
3 573 609 608
3 573 574 609
3 574 610 609
3 574 575 610
3 575 611 610
3 575 540 611
3 540 576 611
3 576 577 612
3 577 613 612
3 577 578 613
3 578 614 613
3 578 579 614
3 579 615 614
3 579 580 615
3 580 616 615
3 580 581 616
3 581 617 616
3 581 582 617
3 582 618 617
3 582 583 618
3 583 619 618
3 583 584 619
3 584 620 619
3 584 585 620
3 585 621 620
3 585 586 621
3 586 622 621
3 586 587 622
3 587 623 622
3 587 588 623
3 588 624 623
3 588 589 624
3 589 625 624
3 589 590 625
3 590 626 625
3 590 591 626
3 591 627 626
3 591 592 627
3 592 628 627
3 592 593 628
3 593 629 628
3 593 594 629
3 594 630 629
3 594 595 630
3 595 631 630
3 595 596 631
3 596 632 631
3 596 597 632
3 597 633 632
3 597 598 633
3 598 634 633
3 598 599 634
3 599 635 634
3 599 600 635
3 600 636 635
3 600 601 636
3 601 637 636
3 601 602 637
3 602 638 637
3 602 603 638
3 603 639 638
3 603 604 639
3 604 640 639
3 604 605 640
3 605 641 640
3 605 606 641
3 606 642 641
3 606 607 642
3 607 643 642
3 607 608 643
3 608 644 643
3 608 609 644
3 609 645 644
3 609 610 645
3 610 646 645
3 610 611 646
3 611 647 646
3 611 576 647
3 576 612 647
